HIERARCHY
ROOT hip
{
	OFFSET 0.000000 0.000000 0.000000 
	CHANNELS 6 Xposition Yposition Zposition Xrotation Zrotation Yrotation
	JOINT abdomen
	{
		OFFSET 0.000000 3.402643 0.000000 
		CHANNELS 3 Xrotation Zrotation Yrotation
		JOINT chest
		{
			OFFSET 0.000000 8.438565 -0.680529 
			CHANNELS 3 Xrotation Zrotation Yrotation
			JOINT neck
			{
				OFFSET 0.000000 10.207942 -0.272212 
				CHANNELS 3 Xrotation Zrotation Yrotation
				JOINT head
				{
					OFFSET 0.000000 3.130431 0.000000 
					CHANNELS 3 Xrotation Zrotation Yrotation
					End Site
					{
						OFFSET 0.000000 3.130435 0.000000 
					}
				}
			}
			JOINT lCollar
			{
				OFFSET 3.470700 6.669187 -0.816635 
				CHANNELS 3 Yrotation Zrotation Xrotation
				JOINT lShldr
				{
					OFFSET 3.198488 0.000000 0.000000 
					CHANNELS 3 Zrotation Yrotation Xrotation
					JOINT lForeArm
					{
						OFFSET 10.139888 0.000000 0.000000 
						CHANNELS 3 Yrotation Zrotation Xrotation
						JOINT lHand
						{
							OFFSET 8.370511 0.000000 0.000000 
							CHANNELS 3 Zrotation Yrotation Xrotation
							End Site
							{
								OFFSET 4.083176 0.000000 0.000000 
							}
						}
					}
				}
			}
			JOINT rCollar
			{
				OFFSET -3.470700 6.669187 -0.816635 
				CHANNELS 3 Yrotation Zrotation Xrotation
				JOINT rShldr
				{
					OFFSET -3.198488 0.000000 0.000000 
					CHANNELS 3 Zrotation Yrotation Xrotation
					JOINT rForeArm
					{
						OFFSET -10.139888 0.000000 0.000000 
						CHANNELS 3 Yrotation Zrotation Xrotation
						JOINT rHand
						{
							OFFSET -8.370511 0.000000 0.000000 
							CHANNELS 3 Zrotation Yrotation Xrotation
							End Site
							{
								OFFSET -4.083176 0.000000 0.000000 
							}
						}
					}
				}
			}
		}
	}
	JOINT lThigh
	{
		OFFSET 5.308129 -1.633274 1.361059 
		CHANNELS 3 Xrotation Zrotation Yrotation
		JOINT lShin
		{
			OFFSET -2.041588 -20.007561 0.000000 
			CHANNELS 3 Xrotation Zrotation Yrotation
			JOINT lFoot
			{
				OFFSET 0.000000 -19.190928 -1.224953 
				CHANNELS 3 Xrotation Yrotation Zrotation
				End Site
				{
					OFFSET 0.000000 -2.449906 4.627600 
				}
			}
		}
	}
	JOINT rThigh
	{
		OFFSET -5.308129 -1.633274 1.361059 
		CHANNELS 3 Xrotation Zrotation Yrotation
		JOINT rShin
		{
			OFFSET 2.041588 -20.007561 0.000000 
			CHANNELS 3 Xrotation Zrotation Yrotation
			JOINT rFoot
			{
				OFFSET 0.000000 -19.190928 -1.224953 
				CHANNELS 3 Xrotation Yrotation Zrotation
				End Site
				{
					OFFSET 0.000000 -2.449906 4.627600 
				}
			}
		}
	}
}
MOTION
Frames: 18
Frame Time: 0.033333
0.042209 46.475243 -0.054659 -2.533464 -6.009788 96.065765 0.000000 0.000000 0.000000 -5.150663 2.305118 7.038538 29.338104 2.428991 0.039505 -19.579521 2.479503 -6.688831 -3.539215 12.578256 25.000000 -93.685280 7.905576 0.756224 -50.332706 8.840744 74.378876 -22.638081 -12.272343 -50.792686 -25.517689 -21.337313 14.092097 87.424004 -8.366065 87.538055 6.294683 -33.223755 -14.366770 39.811741 -1.126248 -80.132629 6.337599 6.044787 19.159523 11.919544 6.044711 1.396522 3.195516 -29.841024 15.669210 11.507274 -0.652974 0.727743 6.438186 -2.489999 -0.846680 1.071903 -6.903803 18.002234 
0.039255 46.474743 -0.066453 -2.494276 -6.029481 96.130882 0.000000 0.000000 0.000000 -5.170070 2.266143 7.031502 29.396526 2.418960 0.037421 -19.664736 2.357052 -6.686547 -3.657475 12.591611 25.000000 -93.877769 7.885997 0.864269 -50.314926 9.158956 74.350281 -22.666515 -12.312303 -50.761105 -25.584469 -21.310507 14.068764 88.205406 -8.170622 88.003860 5.853905 -30.778028 -24.035952 34.432228 -12.912856 -79.951706 6.282713 5.953832 19.119032 11.896938 6.089557 1.400402 3.200683 -29.832462 15.702910 11.326944 -0.702716 0.737160 6.780025 -2.498727 -0.860933 0.828322 -7.067329 17.492685 
0.037166 46.479603 -0.079288 -2.425493 -6.020032 96.181885 0.000000 0.000000 0.000000 -5.160057 2.198096 7.018496 29.464722 2.408683 0.035766 -19.760761 2.277550 -6.678144 -3.775170 12.565924 25.000000 -93.929062 7.942060 0.893658 -50.300598 9.284795 74.387901 -22.245007 -12.475069 -50.885136 -25.655373 -21.263744 14.059014 88.944046 -7.900376 88.401825 5.410230 -28.910719 -31.661119 28.445816 -21.634193 -78.469971 6.282286 5.835934 19.074265 11.876126 6.130462 1.403774 3.205109 -29.829601 15.729127 11.196038 -0.780421 0.705925 7.055524 -2.538587 -0.838517 0.683170 -7.192231 17.446201 
0.033803 46.486671 -0.096673 -2.327213 -6.000942 96.258743 0.000000 0.000000 0.000000 -5.120703 2.120418 6.997660 29.504826 2.447246 0.042276 -19.848148 2.249904 -6.696988 -3.901559 12.516454 25.000000 -93.862389 7.965020 0.864118 -50.321049 9.197170 74.394287 -21.986946 -12.486468 -50.992741 -25.704288 -21.203457 14.063997 89.106216 -7.822149 88.478546 4.965013 -28.750448 -32.311790 27.836773 -23.358675 -78.159950 6.300911 5.679294 19.024364 11.850967 6.200797 1.409040 3.249784 -29.842985 15.783882 11.207973 -0.917121 0.655089 7.110159 -2.469031 -0.815170 0.705577 -7.182146 17.953024 
0.025685 46.490826 -0.114778 -2.258477 -6.001228 96.368782 0.000000 0.000000 0.000000 -5.091104 2.032970 6.977237 29.497562 2.542197 0.051196 -19.906414 2.231494 -6.787630 -4.037214 12.482173 25.000000 -93.773148 7.920659 0.805302 -50.359421 9.003093 74.384789 -22.040659 -12.361151 -51.018230 -25.758121 -21.169577 14.057228 88.683594 -7.965537 88.245445 4.444682 -30.423855 -25.670221 33.585079 -16.910852 -79.729851 6.246928 5.526289 18.965490 11.857539 6.296829 1.447134 3.286271 -29.906059 15.834030 11.291657 -1.093517 0.622020 6.987607 -2.312941 -0.810274 0.801855 -7.204957 18.196346 
0.018076 46.495533 -0.128581 -2.189703 -5.991747 96.449158 0.000000 0.000000 0.000000 -5.051777 1.955272 6.956197 29.471512 2.660303 0.054186 -19.945135 2.213511 -6.897012 -4.127629 12.459276 25.000000 -93.664078 7.867529 0.736680 -50.396122 8.796257 74.350464 -22.234514 -12.191390 -51.001717 -25.791897 -21.194277 14.035151 87.797508 -8.216166 87.731606 4.152798 -34.594219 -10.290581 41.475639 2.964696 -79.862144 6.208854 5.409245 18.931150 11.865527 6.344721 1.451611 3.293629 -29.935322 15.889802 11.492825 -1.259754 0.578080 6.637846 -2.157282 -0.810268 0.913983 -7.318197 17.736954 
0.015439 46.497677 -0.139369 -2.140607 -5.991940 96.502647 0.000000 0.000000 0.000000 -5.032033 1.887235 6.943321 29.464003 2.739765 0.063516 -19.974087 2.195744 -6.986465 -4.181838 12.443571 25.000000 -93.651421 7.809497 0.728284 -50.400112 8.779163 74.257378 -22.555958 -12.054855 -50.916714 -25.813311 -21.194872 14.019275 87.168533 -8.333879 87.342552 5.618214 -34.678719 -9.236993 42.688686 6.747854 -79.241173 6.184825 5.318502 18.900427 11.867604 6.404326 1.466373 3.259721 -29.988770 15.903195 11.622643 -1.347048 0.541953 6.383227 -2.117949 -0.803978 1.020862 -7.377151 17.611847 
0.017331 46.500080 -0.144902 -2.110998 -5.953018 96.527466 0.000000 0.000000 0.000000 -4.992866 1.858162 6.937389 29.464457 2.755309 0.063458 -19.993092 2.169613 -7.022030 -4.199853 12.435088 25.000000 -93.688004 7.768519 0.747976 -50.376011 8.863821 74.192894 -22.735636 -12.011544 -50.861897 -25.808367 -21.168497 14.034697 86.943710 -8.328910 87.176834 6.103095 -34.380444 -9.924426 43.080521 7.510347 -79.071266 6.233666 5.269450 18.883610 11.850216 6.415165 1.456990 3.266655 -30.008665 15.877775 11.697134 -1.377039 0.551584 6.342646 -2.117575 -0.814593 1.001002 -7.413459 17.452257 
0.021872 46.501968 -0.145044 -2.100994 -5.904259 96.524673 0.000000 0.000000 0.000000 -4.953756 1.848543 6.939498 29.502176 2.706079 0.055985 -20.002337 2.143691 -7.018150 -4.217868 12.426603 25.000000 -93.716888 7.767053 0.767597 -50.354012 8.950279 74.167313 -22.764694 -12.031978 -50.840076 -25.799049 -21.128677 14.066821 87.190636 -8.186957 87.292442 5.665677 -33.575794 -12.703897 41.725216 4.186378 -79.557854 6.305983 5.262571 18.881466 11.828912 6.414268 1.466501 3.278029 -30.032690 15.807112 11.585599 -1.327148 0.543003 6.665717 -2.226385 -0.793033 0.824090 -7.481895 17.237747 
0.027503 46.503075 -0.141814 -2.100773 -5.845706 96.493240 0.000000 0.000000 0.000000 -4.904957 1.868138 6.939405 29.539690 2.649851 0.052834 -19.991871 2.109592 -6.969806 -4.227033 12.432100 25.000000 -93.709373 7.806544 0.757759 -50.352016 8.932042 74.164772 -22.624592 -12.076518 -50.882084 -25.819122 -21.070120 14.078719 87.571968 -7.997726 87.475403 5.376631 -32.312092 -17.064194 39.397015 -2.886960 -80.238152 6.387967 5.298526 18.875479 11.829830 6.392674 1.474327 3.293990 -29.995817 15.772338 11.508959 -1.298723 0.562738 6.910187 -2.264356 -0.790033 0.707960 -7.493347 17.253292 
0.034762 46.504333 -0.137880 -2.110334 -5.777356 96.462433 0.000000 0.000000 0.000000 -4.856185 1.897466 6.938519 29.558132 2.609741 0.049066 -19.951769 2.058910 -6.911082 -4.227033 12.432100 25.000000 -93.663567 7.857778 0.736691 -50.383869 8.839119 74.203560 -22.425415 -12.109425 -50.946140 -25.836149 -21.057293 14.079608 88.107582 -7.769431 87.755272 6.057374 -29.598501 -26.863791 32.684219 -16.427885 -79.570618 6.489127 5.329831 18.887819 11.817032 6.374149 1.463055 3.305454 -30.021103 15.732897 11.560034 -1.279217 0.569157 6.972285 -2.265435 -0.808338 0.721735 -7.405277 17.609413 
0.044468 46.508137 -0.131032 -2.119751 -5.669971 96.420403 0.000000 0.000000 0.000000 -4.748785 1.926961 6.949419 29.547060 2.563426 0.048680 -19.864178 2.077795 -6.819569 -4.172360 12.418594 25.000000 -93.598091 7.900222 0.697378 -50.418327 8.748463 74.290939 -22.296133 -12.124928 -50.995094 -25.807337 -21.058954 14.086212 88.787796 -7.502913 88.114067 5.184700 -28.820776 -30.037287 28.658596 -22.518087 -78.423737 6.647933 5.389438 18.903238 11.809751 6.346132 1.460243 3.284418 -29.973740 15.735688 11.702247 -1.229771 0.586086 6.928524 -2.273746 -0.809684 0.810460 -7.229933 18.175770 
0.060572 46.516594 -0.124492 -2.119011 -5.465033 96.363098 0.000000 0.000000 0.000000 -4.543644 1.946992 6.954771 29.526876 2.539935 0.042957 -19.806927 2.147662 -6.737400 -4.107915 12.360607 25.000000 -93.540649 7.912928 0.667898 -50.421249 8.751024 74.350883 -22.295815 -12.134689 -50.995090 -25.760744 -21.027189 14.124478 89.035660 -7.380445 88.229027 4.000427 -29.403364 -27.776628 30.242371 -20.772995 -78.921310 6.941637 5.449126 18.927181 11.740677 6.287204 1.444301 3.255335 -29.928570 15.766480 11.990536 -1.191589 0.600769 6.823137 -2.284205 -0.831528 0.794276 -7.202184 17.830992 
0.077576 46.524376 -0.115534 -2.128106 -5.260062 96.297882 0.000000 0.000000 0.000000 -4.348295 1.976720 6.959188 29.507544 2.548968 0.046819 -19.749718 2.217602 -6.664853 -4.043652 12.312334 25.000000 -93.521515 7.913891 0.648311 -50.418201 8.807476 74.377014 -22.333799 -12.184730 -50.964821 -25.681028 -20.983543 14.185991 88.716812 -7.449323 88.034981 3.095786 -31.587706 -19.590139 37.408489 -10.111652 -80.510887 7.233095 5.506421 18.941399 11.686582 6.201590 1.445409 3.220823 -29.887980 15.750525 12.262196 -1.123026 0.609770 6.724293 -2.332502 -0.835367 0.825587 -7.204239 17.652369 
0.090511 46.527161 -0.102841 -2.166931 -5.142824 96.209175 0.000000 0.000000 0.000000 -4.240885 2.006215 6.960730 29.488218 2.558004 0.050674 -19.702507 2.296002 -6.616709 -3.970850 12.297493 25.000000 -93.511765 7.914394 0.648282 -50.384312 8.887609 74.323624 -22.461823 -12.208263 -50.894276 -25.595585 -20.950876 14.234247 87.752411 -7.695096 87.472382 4.306157 -33.733398 -11.564782 43.499191 2.530452 -80.178635 7.422887 5.611529 18.983755 11.663628 6.138869 1.430297 3.222994 -29.832767 15.689770 12.455275 -1.025205 0.648758 6.594466 -2.380302 -0.859259 0.969220 -7.076153 18.128441 
0.106391 46.530922 -0.082385 -2.225289 -5.006007 96.072441 0.000000 0.000000 0.000000 -4.133574 2.074672 6.979101 29.486525 2.494382 0.041218 -19.694054 2.356404 -6.511970 -3.861445 12.260563 25.000000 -93.484932 7.954869 0.628623 -50.366749 8.951858 74.226860 -22.620176 -12.213169 -50.823502 -25.445097 -20.953514 14.301480 87.046577 -7.837202 87.035179 5.837963 -34.305313 -9.077930 44.900261 6.915273 -79.473602 7.655526 5.781799 19.034302 11.637764 6.015397 1.389758 3.210005 -29.750399 15.596469 12.701938 -0.869462 0.672142 6.374470 -2.469815 -0.885862 0.969302 -6.945391 17.726337 
0.129151 46.535854 -0.060054 -2.273737 -4.839955 95.894379 0.000000 0.000000 0.000000 -3.996967 2.152959 6.988379 29.512178 2.352311 0.033317 -19.675472 2.399837 -6.378025 -3.688722 12.233630 25.000000 -93.478271 8.013885 0.627169 -50.356834 9.066633 74.180542 -22.757484 -12.256476 -50.744480 -25.284500 -20.953524 14.372327 87.083153 -7.786428 87.034203 5.456269 -35.176334 -6.472364 43.748775 8.683020 -79.014999 7.941282 5.943790 19.085032 11.557832 5.868814 1.366727 3.196493 -29.614231 15.559661 13.042765 -0.722291 0.710866 6.027176 -2.575979 -0.924934 1.058612 -6.837648 17.399725 
0.143691 46.534386 -0.040387 -2.342106 -4.771420 95.750893 0.000000 0.000000 0.000000 -3.958084 2.231000 7.013758 29.538416 2.225855 0.024841 -19.636189 2.392112 -6.283883 -3.543983 12.262136 25.000000 -93.549744 8.088491 0.676101 -50.382774 9.211015 74.195267 -22.795200 -12.316256 -50.702377 -25.175665 -20.961430 14.420399 87.650803 -7.614280 87.363617 3.821032 -35.783070 -5.331720 42.549690 7.304167 -79.301506 8.117135 6.099878 19.135956 11.510367 5.742553 1.335885 3.164340 -29.498949 15.543244 13.293426 -0.566326 0.755764 5.686702 -2.672692 -0.982218 1.177339 -6.731689 17.156170 
